<svg xmlns="http://www.w3.org/2000/svg" width="180" height="200" version="1.1">
		<line x1="22" x2="80" y1="70" y2="70" stroke="#262626" stroke-width="1"/>
		<line x1="22" x2="40" y1="90" y2="90" stroke="#262626" stroke-width="1"/>
		<line x1="22" x2="40" y1="110" y2="110" stroke="#262626" stroke-width="1"/>
		<line x1="22" x2="40" y1="130" y2="130" stroke="#262626" stroke-width="1"/>
		<line x1="22" x2="100" y1="150" y2="150" stroke="#262626" stroke-width="1"/>
		<line x1="22" x2="100" y1="170" y2="170" stroke="#262626" stroke-width="1"/>
		<line x1="22" x2="100" y1="170" y2="170" stroke="#262626" stroke-width="1"/>
		<line x1="40" x2="40" y1="50" y2="170" stroke="#262626" stroke-width="1"/>
		<line x1="60" x2="60" y1="50" y2="90" stroke="#262626" stroke-width="1"/>
		<line x1="60" x2="60" y1="130" y2="170" stroke="#262626" stroke-width="1"/>
		<line x1="80" x2="80" y1="130" y2="190" stroke="#262626" stroke-width="1"/>
		<line x1="20" x2="80" y1="50" y2="50" stroke="#26ff00" stroke-width="4"/>
		<line x1="20" x2="20" y1="50" y2="170" stroke="#26ff00" stroke-width="4"/>
		<line x1="20" x2="60" y1="170" y2="170" stroke="#ff0000" stroke-width="4"/>
		<line x1="40" x2="100" y1="130" y2="130" stroke="#ff0000" stroke-width="4"/>
		<line x1="60" x2="100" y1="190" y2="190" stroke="#ff0000" stroke-width="4"/>
		<line x1="80" x2="80" y1="50" y2="90" stroke="#26ff00" stroke-width="4"/>
		<line x1="100" x2="100" y1="130" y2="190" stroke="#ff0000" stroke-width="4"/>
		<line x1="60" x2="60" y1="170" y2="190" stroke="#ff0000" stroke-width="4"/>
		<line x1="40" x2="40" y1="90" y2="130" stroke="#26ff00" stroke-width="4"/>
		<line x1="40" x2="80" y1="90" y2="90" stroke="#26ff00" stroke-width="4"/>
		<line x1="20" x2="20" y1="70" y2="90" stroke="#ff0000" stroke-width="4"/>
		<line x1="60" x2="60" y1="70" y2="75" stroke="#ff0000" stroke-width="4"/>
		<line x1="40" x2="40" y1="127" y2="132" stroke="#ff0000" stroke-width="4"/>
</svg>